<svg width="472" height="472" viewBox="0 -47 354.987 354" xmlns="http://www.w3.org/2000/svg" xmlns:xlink="http://www.w3.org/1999/xlink" overflow="hidden"><path d="M6.82812 102.895C3.05469 102.895 0 105.949 0 109.719L0 143.852C0 147.625 3.05469 150.68 6.82812 150.68 10.5977 150.68 13.6523 147.625 13.6523 143.852L13.6523 109.719C13.6523 105.949 10.5977 102.895 6.82812 102.895Z" fill="#FFFFFF"/><path d="M40.9844 74.9414C37.2148 74.9414 34.1562 78 34.1562 81.7695L34.1562 176.285C34.1562 180.059 37.2148 183.113 40.9844 183.113 44.7539 183.113 47.8125 180.059 47.8125 176.285L47.8125 81.7695C47.8125 78 44.7539 74.9414 40.9844 74.9414Z" fill="#FFFFFF"/><path d="M75.0938 27.8008C71.3242 27.8008 68.2656 30.8555 68.2656 34.625L68.2656 225.773C68.2656 229.543 71.3242 232.602 75.0938 232.602 78.8633 232.602 81.9219 229.543 81.9219 225.773L81.9219 34.625C81.9219 30.8555 78.8633 27.8008 75.0938 27.8008Z" fill="#FFFFFF"/><path d="M109.227 61.9336C105.457 61.9336 102.398 64.9883 102.398 68.7617L102.398 184.812C102.398 188.582 105.457 191.641 109.227 191.641 112.996 191.641 116.055 188.582 116.055 184.812L116.055 68.7617C116.055 64.9883 112.996 61.9336 109.227 61.9336Z" fill="#FFFFFF"/><path d="M212.293 45.4062C208.523 45.4062 205.469 48.4609 205.469 52.2344L205.469 205.824C205.469 209.594 208.523 212.648 212.293 212.648 216.062 212.648 219.121 209.594 219.121 205.824L219.121 52.2344C219.121 48.4609 216.062 45.4062 212.293 45.4062Z" fill="#FFFFFF"/><path d="M279.895 55.1055C276.125 55.1055 273.066 58.1641 273.066 61.9336L273.066 198.465C273.066 202.238 276.125 205.293 279.895 205.293 283.664 205.293 286.719 202.238 286.719 198.465L286.719 61.9336C286.719 58.1641 283.664 55.1055 279.895 55.1055Z" fill="#FFFFFF"/><path d="M314.027 89.2383C310.258 89.2383 307.199 92.2969 307.199 96.0664L307.199 164.332C307.199 168.102 310.258 171.16 314.027 171.16 317.797 171.16 320.852 168.102 320.852 164.332L320.852 96.0664C320.852 92.2969 317.797 89.2383 314.027 89.2383Z" fill="#FFFFFF"/><path d="M245.762 0.492188C241.988 0.492188 238.934 3.55078 238.934 7.32031L238.934 253.078C238.934 256.852 241.988 259.906 245.762 259.906 249.531 259.906 252.586 256.852 252.586 253.078L252.586 7.32031C252.586 3.55078 249.531 0.492188 245.762 0.492188Z" fill="#FFFFFF"/><path d="M143.359 109.719C139.59 109.719 136.535 112.777 136.535 116.547L136.535 143.852C136.535 147.625 139.59 150.68 143.359 150.68 147.129 150.68 150.188 147.625 150.188 143.852L150.188 116.547C150.188 112.777 147.129 109.719 143.359 109.719Z" fill="#FFFFFF"/><path d="M348.16 107.434C344.391 107.434 341.332 110.488 341.332 114.258L341.332 143.797C341.332 147.566 344.391 150.625 348.16 150.625 351.93 150.625 354.988 147.566 354.988 143.797L354.988 114.258C354.988 110.488 351.93 107.434 348.16 107.434Z" fill="#FFFFFF"/><path d="M176.852 94.418C173.078 94.418 170.023 97.4727 170.023 101.242L170.023 156.812C170.023 160.582 173.078 163.641 176.852 163.641 180.621 163.641 183.676 160.582 183.676 156.812L183.676 101.242C183.676 97.4727 180.621 94.418 176.852 94.418Z" fill="#FFFFFF"/></svg>